PathFileType	4	(X/Y/Z)	Walk10.trc
DataRate	CameraRate	NumFrames	NumMarkers	Units	OrigDataRate	OrigDataStartFrame	OrigNumFrames
200.000000	200.000000	7	59	mm	200.000000	498	536
Frame#	Times		C7		T10		RBack		LPSI		RPSI		RCAR		LElbowM		LLFC		LTH1		LBHD		RWRR		LUA1		CLAV		RUA1		RElbowM		RFA1		LFA1		RTH3		LCAR		LWRU		RTH4		RTH2		RACR1		LACR1		STRN		RTB4		LWRR		RTB3		RMT1		RWRU		RTB1		RToe		RCAL		RFHD		RLFC		RMT5		RBHD		LFHD		RTB2		LElbow		LTB3		LTH4		LTH3		RTH1		RMMAL		RLMAL		LTH2		RElbow		LTB2		LCAL		LMT1		LLMAL		RASI		LASI		LTB4		LMT5		LMMAL		LToe		LTB1
			X1	Y1	Z1	X2	Y2	Z2	X3	Y3	Z3	X4	Y4	Z4	X5	Y5	Z5	X6	Y6	Z6	X7	Y7	Z7	X8	Y8	Z8	X9	Y9	Z9	X10	Y10	Z10	X11	Y11	Z11	X12	Y12	Z12	X13	Y13	Z13	X14	Y14	Z14	X15	Y15	Z15	X16	Y16	Z16	X17	Y17	Z17	X18	Y18	Z18	X19	Y19	Z19	X20	Y20	Z20	X21	Y21	Z21	X22	Y22	Z22	X23	Y23	Z23	X24	Y24	Z24	X25	Y25	Z25	X26	Y26	Z26	X27	Y27	Z27	X28	Y28	Z28	X29	Y29	Z29	X30	Y30	Z30	X31	Y31	Z31	X32	Y32	Z32	X33	Y33	Z33	X34	Y34	Z34	X35	Y35	Z35	X36	Y36	Z36	X37	Y37	Z37	X38	Y38	Z38	X39	Y39	Z39	X40	Y40	Z40	X41	Y41	Z41	X42	Y42	Z42	X43	Y43	Z43	X44	Y44	Z44	X45	Y45	Z45	X46	Y46	Z46	X47	Y47	Z47	X48	Y48	Z48	X49	Y49	Z49	X50	Y50	Z50	X51	Y51	Z51	X52	Y52	Z52	X53	Y53	Z53	X54	Y54	Z54	X55	Y55	Z55	X56	Y56	Z56	X57	Y57	Z57	X58	Y58	Z58	X59	Y59	Z59

498	2.49	981.98	1356.9	-35.596	962.25	1088.9	-24.772	964.49	1265.3	99.375	939.71	905.39	-52.386	937.39	905.81	47.893	1154.9	764.85	281.32	1009.5	961.48	-215.25	1058.2	452.27	-132.76	1098.1	742.84	-194.53	997.91	1487.4	-105.94	1169.8	802.56	231.54	1064.4	1111.6	-274.48	1110.8	1284.8	-29.452	1070.7	1158	209.41	1008.2	974.73	178.27	1066.1	888.78	263.87	1060.5	874.51	-314.46	1163.2	561.7	167.47	1152.9	723.38	-344.34	1098.7	756.68	-331.44	1135.6	651.84	185.42	1205.3	679.52	164.09	1062.5	1307.8	119.43	1061.1	1287.7	-196.76	1177.5	1180.7	-28.908	1155.9	260.69	85.117	1163.5	765	-297.6	1123.1	173.75	81.714	1145.9	67.596	88.907	1101.7	780.91	251.37	1202.1	339.59	85.41	1185.9	37.667	117.83	991.62	104.7	77.103	1169.6	1521.5	-1.2539	1205.6	471.92	159.97	1110.3	61.604	133.31	992.59	1492.9	17.714	1168.5	1513	-79.041	1122.4	274.23	148.2	1029.8	993.68	-284.02	1072.6	159.32	-35.872	1097.3	652.32	-166.01	1093.9	560.26	-143.05	1111.3	736.26	205.74	1072.4	113.76	42.073	1049.1	113.61	118.99	1159.9	664.3	-128.38	1053	1016.6	253.66	1046	248.04	-111.28	976.34	28.287	-30.604	1131.1	46.343	-23.497	1021	61.076	-73.413	1162.2	884.55	134.12	1177.8	852.9	-167.43	1071.6	250.49	-44.959	1107.6	26.945	-77.681	1041	68.125	3.6526	1187	23.127	-31.004	1088.8	340.89	-52.311
499	2.495	987.77	1356.6	-35.752	968.15	1088.6	-24.919	969.97	1264.9	99.129	944.75	905.17	-52.125	942.71	905.36	48.174	1158.7	764.19	281.81	1015.7	960.85	-215.91	1060.8	452.04	-132.79	1102.8	742.33	-194.64	1003.8	1487	-106.13	1173.9	801.86	232.11	1070.7	1111.2	-274.79	1116.4	1284.2	-29.491	1075.8	1157.5	209.3	1013	974.31	177.99	1070.2	888.27	263.95	1067.7	874.17	-314.81	1170.9	561.81	166.45	1161.2	723.59	-344.16	1106.7	756.59	-331.55	1142.8	651.71	184.7	1212.1	679.96	163.04	1068.1	1307.2	119.32	1067.1	1287.3	-196.89	1183	1180	-28.912	1169.1	259.66	84.212	1171.3	765.28	-297.37	1139	171.8	81.117	1165	66.57	88.385	1105.7	780.33	251.61	1213	339.88	84.111	1206.1	37.879	117.12	1009.5	98.874	77.432	1175.4	1521	-1.2687	1213.8	472.27	158.48	1129.8	59.426	133.03	998.34	1492.5	17.6	1174.3	1512.5	-79.046	1135.7	272.26	147.53	1036.3	993.24	-284.52	1073.3	159.04	-35.709	1101.2	651.79	-166.07	1097.2	559.81	-143.08	1117.9	735.9	205.32	1089.7	110.35	41.867	1067	109.49	119.02	1163.9	663.43	-128.33	1057.5	1016.1	253.56	1047.4	247.86	-111.22	976.38	28.399	-30.454	1131.2	46.165	-23.271	1021.3	61.143	-73.262	1166.9	883.91	133.43	1182.4	853.1	-167.73	1072.9	250.2	-44.846	1107.6	26.942	-77.58	1041.2	68.035	3.9008	1187.2	22.851	-30.829	1090.8	340.48	-52.25
500	2.5	993.56	1356.2	-35.891	974.04	1088.2	-25.054	975.45	1264.5	98.9	949.81	904.91	-51.833	948.05	904.86	48.472	1162.5	763.47	282.3	1022	960.17	-216.56	1063.6	451.79	-132.81	1107.4	741.79	-194.73	1009.6	1486.5	-106.3	1178.1	801.11	232.67	1077	1110.8	-275.08	1122.1	1283.7	-29.518	1080.8	1156.9	209.21	1017.7	973.85	177.74	1074.4	887.71	264.04	1075	873.79	-315.13	1178.6	561.85	165.44	1169.5	723.75	-343.95	1114.8	756.46	-331.63	1149.9	651.52	183.99	1218.9	680.29	161.98	1073.6	1306.6	119.23	1073	1286.9	-197.01	1188.5	1179.4	-28.912	1182.4	258.69	83.3	1179.1	765.52	-297.12	1154.8	169.98	80.501	1184.1	65.705	87.801	1109.7	779.71	251.85	1223.9	340.17	82.819	1226.2	38.268	116.33	1027.5	93.225	77.705	1181.2	1520.6	-1.2729	1221.9	472.54	157.01	1149.3	57.429	132.68	1004.1	1492	17.495	1180.1	1512.1	-79.04	1149	270.36	146.84	1042.8	992.75	-285	1074.1	158.75	-35.535	1105.2	651.24	-166.13	1100.6	559.35	-143.1	1124.4	735.5	204.92	1107.2	107.1	41.619	1085	105.55	119	1167.9	662.54	-128.26	1061.9	1015.6	253.48	1048.9	247.66	-111.16	976.42	28.515	-30.299	1131.3	45.987	-23.039	1021.6	61.211	-73.098	1171.8	883.2	132.71	1186.6	853.27	-168.01	1074.3	249.9	-44.723	1107.7	26.942	-77.47	1041.3	67.944	4.166	1187.4	22.569	-30.651	1092.8	340.05	-52.181
501	2.505	999.34	1355.8	-36.014	979.92	1087.8	-25.176	980.94	1264	98.687	954.88	904.61	-51.512	953.42	904.32	48.784	1166.4	762.72	282.78	1028.3	959.45	-217.21	1066.3	451.51	-132.82	1112.1	741.22	-194.82	1015.5	1486	-106.46	1182.3	800.33	233.23	1083.3	1110.3	-275.35	1127.8	1283	-29.531	1085.8	1156.2	209.13	1022.5	973.33	177.53	1078.6	887.1	264.15	1082.3	873.36	-315.44	1186.1	561.82	164.44	1177.8	723.87	-343.72	1122.8	756.3	-331.69	1156.9	651.27	183.3	1225.6	680.52	160.93	1079.1	1305.9	119.16	1079	1286.5	-197.12	1194	1178.7	-28.909	1195.7	257.79	82.383	1186.9	765.71	-296.84	1170.7	168.3	79.864	1203.1	65.018	87.155	1113.7	779.03	252.07	1234.7	340.48	81.536	1246.3	38.847	115.47	1045.6	87.772	77.92	1186.9	1520.1	-1.2657	1229.9	472.74	155.57	1168.9	55.631	132.27	1009.8	1491.5	17.399	1185.9	1511.5	-79.022	1162.3	268.54	146.13	1049.3	992.21	-285.47	1075	158.44	-35.349	1109.3	650.67	-166.19	1104	558.87	-143.11	1131	735.03	204.54	1124.7	104.02	41.327	1103	101.8	118.93	1172	661.64	-128.18	1066.4	1015	253.42	1050.4	247.44	-111.08	976.47	28.637	-30.14	1131.5	45.811	-22.8	1021.9	61.279	-72.924	1176.9	882.42	131.97	1190.5	853.42	-168.27	1075.8	249.57	-44.589	1107.8	26.945	-77.354	1041.5	67.851	4.4467	1187.6	22.284	-30.472	1094.9	339.59	-52.105
502	2.51	1005.1	1355.4	-36.121	985.78	1087.4	-25.286	986.43	1263.5	98.49	959.96	904.27	-51.164	958.81	903.74	49.109	1170.3	761.93	283.25	1034.6	958.68	-217.84	1069.2	451.22	-132.82	1116.8	740.62	-194.91	1021.3	1485.4	-106.6	1186.5	799.51	233.79	1089.6	1109.8	-275.6	1133.5	1282.4	-29.531	1090.9	1155.5	209.07	1027.2	972.76	177.35	1082.8	886.45	264.26	1089.6	872.9	-315.73	1193.5	561.71	163.46	1186.1	723.95	-343.46	1130.8	756.09	-331.72	1163.9	650.96	182.62	1232.3	680.64	159.87	1084.6	1305.2	119.1	1084.9	1286	-197.22	1199.6	1177.9	-28.902	1208.8	256.97	81.459	1194.7	765.86	-296.55	1186.6	166.77	79.205	1222.2	64.523	86.446	1117.8	778.31	252.29	1245.3	340.8	80.263	1266.3	39.628	114.53	1063.9	82.537	78.076	1192.7	1519.5	-1.2464	1237.7	472.86	154.15	1188.4	54.049	131.79	1015.6	1491	17.312	1191.7	1510.9	-78.992	1175.5	266.79	145.41	1055.8	991.64	-285.93	1075.8	158.12	-35.15	1113.4	650.08	-166.24	1107.5	558.37	-143.11	1137.5	734.52	204.18	1142.3	101.13	40.989	1121.2	98.247	118.8	1176.1	660.73	-128.09	1070.9	1014.3	253.38	1052	247.21	-110.99	976.52	28.765	-29.978	1131.6	45.638	-22.557	1022.1	61.347	-72.74	1182.3	881.58	131.24	1194	853.55	-168.51	1077.2	249.23	-44.445	1107.8	26.952	-77.231	1041.7	67.758	4.7409	1187.8	22.002	-30.293	1097	339.11	-52.021
503	2.515	1010.9	1354.9	-36.212	991.63	1087	-25.385	991.93	1262.9	98.308	965.05	903.9	-50.791	964.22	903.13	49.445	1174.2	761.1	283.72	1040.9	957.87	-218.47	1072.1	450.9	-132.81	1121.5	740	-194.99	1027.2	1484.8	-106.73	1190.8	798.66	234.34	1095.9	1109.2	-275.84	1139.2	1281.7	-29.52	1095.9	1154.8	209.02	1032	972.15	177.2	1087	885.77	264.38	1096.9	872.41	-316	1200.7	561.52	162.5	1194.3	723.98	-343.18	1138.9	755.85	-331.72	1170.8	650.59	181.95	1238.8	680.66	158.83	1090.2	1304.5	119.06	1090.8	1285.4	-197.31	1205.1	1177.1	-28.891	1222	256.23	80.53	1202.5	765.97	-296.24	1202.5	165.4	78.522	1241.2	64.231	85.67	1121.9	777.55	252.51	1255.9	341.14	79.002	1286.2	40.621	113.51	1082.4	77.537	78.173	1198.4	1518.9	-1.2142	1245.3	472.9	152.76	1208	52.699	131.24	1021.3	1490.4	17.235	1197.6	1510.3	-78.949	1188.7	265.12	144.66	1062.4	991.02	-286.37	1076.7	157.8	-34.94	1117.5	649.47	-166.3	1111	557.85	-143.1	1144	733.96	203.84	1160	98.445	40.604	1139.4	94.921	118.61	1180.2	659.81	-127.99	1075.5	1013.7	253.37	1053.6	246.96	-110.89	976.57	28.898	-29.814	1131.7	45.47	-22.313	1022.4	61.414	-72.548	1187.7	880.68	130.52	1197.3	853.65	-168.73	1078.7	248.88	-44.29	1107.9	26.962	-77.104	1041.9	67.666	5.0467	1188.1	21.726	-30.116	1099.2	338.6	-51.927
504	2.52	1016.7	1354.3	-36.285	997.48	1086.5	-25.474	997.43	1262.3	98.142	970.16	903.49	-50.396	969.66	902.49	49.79	1178.1	760.25	284.19	1047.2	957.02	-219.09	1075.1	450.57	-132.8	1126.2	739.36	-195.06	1033	1484.2	-106.84	1195	797.78	234.88	1102.2	1108.6	-276.05	1144.9	1281	-29.496	1101	1154	208.99	1036.7	971.5	177.09	1091.3	885.05	264.52	1104.2	871.88	-316.24	1207.8	561.25	161.56	1202.5	723.98	-342.87	1146.9	755.58	-331.7	1177.6	650.15	181.31	1245.4	680.57	157.8	1095.7	1303.7	119.03	1096.8	1284.9	-197.39	1210.7	1176.3	-28.875	1235.1	255.58	79.594	1210.2	766.04	-295.9	1218.3	164.2	77.814	1260.1	64.155	84.825	1126	776.75	252.73	1266.3	341.49	77.754	1306	41.835	112.41	1100.9	72.789	78.214	1204.2	1518.3	-1.1683	1252.8	472.85	151.42	1227.5	51.591	130.61	1027.1	1489.8	17.169	1203.4	1509.7	-78.893	1201.9	263.55	143.9	1068.9	990.37	-286.79	1077.6	157.46	-34.718	1121.6	648.84	-166.35	1114.5	557.32	-143.08	1150.5	733.34	203.51	1177.7	95.972	40.168	1157.6	91.831	118.35	1184.3	658.87	-127.9	1080	1013	253.37	1055.2	246.7	-110.77	976.63	29.037	-29.648	1131.8	45.307	-22.068	1022.7	61.48	-72.349	1193.4	879.72	129.85	1200.2	853.72	-168.93	1080.3	248.5	-44.124	1108	26.976	-76.973	1042.1	67.576	5.3619	1188.3	21.462	-29.941	1101.5	338.07	-51.824
